<svg width="21" height="19" viewBox="0 0 21 19" fill="none" xmlns="http://www.w3.org/2000/svg">
<path d="M13.3438 11.083C13.1697 11.083 13.0028 11.1456 12.8797 11.2569C12.7566 11.3683 12.6875 11.5193 12.6875 11.6768C12.6875 11.8342 12.7566 11.9853 12.8797 12.0966C13.0028 12.208 13.1697 12.2705 13.3438 12.2705H16.4062C16.5803 12.2705 16.7472 12.208 16.8703 12.0966C16.9934 11.9853 17.0625 11.8342 17.0625 11.6768C17.0625 11.5193 16.9934 11.3683 16.8703 11.2569C16.7472 11.1456 16.5803 11.083 16.4062 11.083H13.3438Z" fill="#959595"/>
<path d="M1.53125 2.375H19.4688C20.314 2.375 21 2.99567 21 3.76042V15.2396C21 15.607 20.8387 15.9594 20.5515 16.2192C20.2643 16.479 19.8749 16.625 19.4688 16.625H1.53125C1.12514 16.625 0.735658 16.479 0.448493 16.2192C0.161328 15.9594 0 15.607 0 15.2396L0 3.76042C0 2.99567 0.686 2.375 1.53125 2.375ZM1.3125 7.91667V15.2396C1.3125 15.3488 1.4105 15.4375 1.53125 15.4375H19.4688C19.5268 15.4375 19.5824 15.4166 19.6234 15.3795C19.6645 15.3424 19.6875 15.2921 19.6875 15.2396V7.91667H1.3125ZM1.3125 3.76042V6.72917H19.6875V3.76042C19.6875 3.70793 19.6645 3.65758 19.6234 3.62047C19.5824 3.58335 19.5268 3.5625 19.4688 3.5625H1.53125C1.47323 3.5625 1.41759 3.58335 1.37657 3.62047C1.33555 3.65758 1.3125 3.70793 1.3125 3.76042Z" fill="#959595"/>
</svg>
