<svg width="68" height="68" viewBox="0 0 68 68" fill="none" xmlns="http://www.w3.org/2000/svg">
<path d="M54.5829 12.5802L54.583 12.58L54.5764 12.5735C49.867 7.86402 43.4372 4.43026 36.5653 4.00076C29.716 3.57268 22.8607 5.28407 17.2859 9.1423C11.2825 13.0029 7.42638 18.5781 5.28674 25.4234C3.14197 31.8597 3.57323 39.1449 6.14253 45.5681C8.7152 51.9998 13.4307 57.1417 19.4256 60.5673C25.4339 64.0007 32.2956 64.8554 39.1457 63.571C46.0089 62.2841 52.0086 58.425 56.2917 53.2853L56.2919 53.2854L56.2978 53.2777C60.5749 47.7175 63.1497 41.2902 63.1497 34.4253C63.1497 25.8608 60.1499 18.5754 54.5829 12.5802ZM57.9747 34.0003V34.0092L57.9753 34.0181C58.3949 39.8925 56.299 45.3583 52.9267 49.9974C49.1392 54.624 44.0905 57.5689 38.6184 58.8317C33.1552 60.0924 27.2704 59.2521 22.2256 56.3093C17.1713 53.361 13.3809 49.1505 10.8516 43.6705C8.33176 38.2108 8.32845 32.3255 10.0136 26.8488L10.0136 26.8488L10.015 26.844C11.6993 20.9488 15.0658 16.3204 19.6967 12.9525C24.3151 9.59361 30.2033 8.32821 35.6805 8.74954L35.6818 8.74964C41.5654 9.1699 46.6106 11.6898 50.8229 15.9021C55.4458 20.525 57.9747 27.2588 57.9747 34.0003ZM23.555 48.6234L33.5747 38.1863L43.5943 48.6234L43.771 48.8075L43.9514 48.627L46.9264 45.6521L47.0996 45.4788L46.93 45.3021L36.8962 34.8503L46.93 24.3984L47.0996 24.2217L46.9264 24.0485L43.9514 21.0735L43.771 20.8931L43.5943 21.0771L33.5747 31.5143L23.555 21.0771L23.3783 20.8931L23.1979 21.0735L20.2229 24.0485L20.0497 24.2217L20.2193 24.3984L30.2531 34.8503L20.2193 45.3021L20.0497 45.4788L20.2229 45.6521L23.1979 48.627L23.3783 48.8075L23.555 48.6234Z" fill="white" stroke="white" stroke-width="0.5"/>
</svg>
