<svg width="21" height="15" viewBox="0 0 21 15" fill="none" xmlns="http://www.w3.org/2000/svg">
<path d="M19.125 0.3125H1.875C1.49375 0.3125 1.12812 0.46395 0.858534 0.733534C0.58895 1.00312 0.4375 1.36875 0.4375 1.75V13.25C0.4375 13.6312 0.58895 13.9969 0.858534 14.2665C1.12812 14.536 1.49375 14.6875 1.875 14.6875H19.125C19.5062 14.6875 19.8719 14.536 20.1415 14.2665C20.411 13.9969 20.5625 13.6312 20.5625 13.25V1.75C20.5625 1.36875 20.411 1.00312 20.1415 0.733534C19.8719 0.46395 19.5062 0.3125 19.125 0.3125ZM17.5437 1.75L10.5 6.62312L3.45625 1.75H17.5437ZM1.875 13.25V2.40406L10.0903 8.08937C10.2106 8.17284 10.3536 8.21757 10.5 8.21757C10.6464 8.21757 10.7894 8.17284 10.9097 8.08937L19.125 2.40406V13.25H1.875Z" fill="#959595"/>
</svg>
