<svg width="20" height="20" viewBox="0 0 20 20" fill="none" xmlns="http://www.w3.org/2000/svg">
<path d="M17.3727 12.2606L13.6922 10.6938L13.682 10.6893C13.491 10.6117 13.2825 10.5806 13.0756 10.5987C12.8687 10.6168 12.6698 10.6837 12.4969 10.7932C12.4765 10.806 12.457 10.8199 12.4383 10.8348L10.5367 12.3748C9.33204 11.819 8.08829 10.6463 7.50313 9.51669L9.12657 7.68274C9.14219 7.66419 9.15704 7.64563 9.1711 7.62559C9.28394 7.46179 9.35239 7.27403 9.37039 7.07903C9.38838 6.88402 9.35534 6.68781 9.27423 6.50786V6.49895L7.62032 2.99657C7.51309 2.76149 7.3287 2.56567 7.09468 2.43832C6.86067 2.31098 6.58958 2.25895 6.32188 2.29001C5.26326 2.42234 4.29155 2.91624 3.58824 3.67945C2.88492 4.44266 2.49809 5.423 2.50001 6.43735C2.50001 12.3303 7.54688 17.1248 13.75 17.1248C14.8177 17.1267 15.8497 16.7592 16.6531 16.091C17.4564 15.4229 17.9763 14.4998 18.1156 13.4941C18.1484 13.2398 18.0937 12.9824 17.9598 12.7601C17.8259 12.5378 17.62 12.3625 17.3727 12.2606ZM13.75 15.9373C11.0987 15.9346 8.55687 14.9328 6.68214 13.1518C4.8074 11.3708 3.7529 8.95606 3.75001 6.43735C3.74707 5.7126 4.02192 5.0116 4.52324 4.46529C5.02456 3.91897 5.71806 3.56469 6.47423 3.4686C6.47392 3.47156 6.47392 3.47454 6.47423 3.47751L8.11485 6.96579L6.50001 8.80196C6.48362 8.81988 6.46873 8.83898 6.45548 8.85911C6.33791 9.03049 6.26894 9.22782 6.25525 9.43197C6.24157 9.63612 6.28362 9.84017 6.37735 10.0243C7.08516 11.3996 8.54376 12.7749 10.007 13.4466C10.2023 13.5348 10.4184 13.5733 10.634 13.5585C10.8497 13.5437 11.0576 13.476 11.2375 13.362C11.2576 13.3491 11.2769 13.3352 11.2953 13.3204L13.1945 11.7811L16.8664 13.3434H16.875C16.7751 14.0628 16.4027 14.7229 15.8275 15.2004C15.2524 15.6778 14.5138 15.9398 13.75 15.9373Z" fill="#959595"/>
</svg>
