<svg width="59" height="59" viewBox="0 0 59 59" fill="none" xmlns="http://www.w3.org/2000/svg">
<path d="M9.006 50.719C6.18845 47.9977 3.94108 44.7425 2.39501 41.1434C0.848945 37.5443 0.0351514 33.6733 0.00111382 29.7563C-0.0329238 25.8393 0.713476 21.9548 2.19676 18.3294C3.68005 14.7039 5.87052 11.4102 8.64035 8.64035C11.4102 5.87052 14.7039 3.68005 18.3294 2.19676C21.9548 0.713476 25.8393 -0.0329238 29.7563 0.00111382C33.6733 0.0351514 37.5443 0.848945 41.1434 2.39501C44.7425 3.94108 47.9977 6.18845 50.719 9.006C56.0927 14.5698 59.0661 22.0215 58.9989 29.7563C58.9317 37.4911 55.8292 44.8901 50.3597 50.3597C44.8901 55.8292 37.4911 58.9317 29.7563 58.9989C22.0215 59.0661 14.5698 56.0927 9.006 50.719ZM46.5595 46.5595C50.9878 42.1312 53.4756 36.1251 53.4756 29.8625C53.4756 23.5999 50.9878 17.5938 46.5595 13.1655C42.1312 8.73718 36.1251 6.24938 29.8625 6.24938C23.5999 6.24938 17.5938 8.73718 13.1655 13.1655C8.73718 17.5938 6.24938 23.5999 6.24938 29.8625C6.24938 36.1251 8.73718 42.1312 13.1655 46.5595C17.5938 50.9878 23.5999 53.4756 29.8625 53.4756C36.1251 53.4756 42.1312 50.9878 46.5595 46.5595ZM20.1275 27.768L26.9125 34.5825L39.5975 21.8975L43.7275 26.0865L26.9125 42.8425L15.9975 31.9275L20.1275 27.7385V27.768Z" fill="white"/>
</svg>
