<svg width="25" height="24" viewBox="0 0 25 24" fill="none" xmlns="http://www.w3.org/2000/svg">
<path d="M3.8161 20.6315C2.62223 19.5245 1.66995 18.2004 1.01484 16.7363C0.359723 15.2723 0.0148947 13.6976 0.00047196 12.1043C-0.0139507 10.5109 0.302321 8.93077 0.930832 7.45601C1.55934 5.98125 2.48751 4.64143 3.66117 3.51472C4.83482 2.38801 6.23047 1.49697 7.76668 0.893598C9.30288 0.290228 10.9489 -0.0133927 12.6086 0.000453081C14.2684 0.0142989 15.9086 0.345334 17.4337 0.974242C18.9587 1.60315 20.338 2.51734 21.4911 3.66346C23.7681 5.92668 25.028 8.95791 24.9995 12.1043C24.971 15.2506 23.6564 18.2604 21.3388 20.4853C19.0212 22.7102 15.8861 23.9722 12.6086 23.9995C9.33116 24.0269 6.17363 22.8174 3.8161 20.6315ZM19.7286 18.9395C21.605 17.1381 22.6592 14.695 22.6592 12.1475C22.6592 9.59996 21.605 7.15681 19.7286 5.35546C17.8522 3.55411 15.3072 2.54212 12.6536 2.54212C9.99996 2.54212 7.45501 3.55411 5.5786 5.35546C3.7022 7.15681 2.64804 9.59996 2.64804 12.1475C2.64804 14.695 3.7022 17.1381 5.5786 18.9395C7.45501 20.7408 9.99996 21.7528 12.6536 21.7528C15.3072 21.7528 17.8522 20.7408 19.7286 18.9395ZM8.5286 11.2955L11.4036 14.0675L16.7786 8.90746L18.5286 10.6115L11.4036 17.4275L6.7786 12.9875L8.5286 11.2835V11.2955Z" fill="#28AE60"/>
</svg>
